<svg width="870" height="703" viewBox="0 0 870 703" fill="none" xmlns="http://www.w3.org/2000/svg">
<path d="M278.595 334.028L289.603 323.838L278.396 311.733L267.408 324.037L278.595 334.028ZM414.494 480.833L403.487 491.023L414.44 502.855L425.451 491.077L414.494 480.833ZM864.992 14.4956C864.713 6.21599 857.775 -0.270099 849.496 0.00848369L714.572 4.54826C706.292 4.82684 699.806 11.7646 700.085 20.0442C700.363 28.3238 707.301 34.8099 715.581 34.5313L835.513 30.4959L839.548 150.428C839.827 158.708 846.765 165.194 855.044 164.915C863.324 164.637 869.81 157.699 869.531 149.419L864.992 14.4956ZM-30.8122 702.992L289.783 344.02L267.408 324.037L-53.1878 683.008L-30.8122 702.992ZM267.588 344.218L403.487 491.023L425.502 470.643L289.603 323.838L267.588 344.218ZM425.451 491.077L860.957 25.2439L839.043 4.75608L403.537 470.589L425.451 491.077Z" fill="#5707FF"/>
</svg>
