<svg width="44" height="43" viewBox="0 0 44 43" fill="none" xmlns="http://www.w3.org/2000/svg">
<path d="M15.3677 42.089C16.0218 41.8074 16.48 41.157 16.48 40.3998V35.4318C16.48 35.2506 16.4947 35.062 16.5177 34.8706C16.5048 34.8743 16.4929 34.8771 16.48 34.8798C16.48 34.8798 13.72 34.8798 13.168 34.8798C11.788 34.8798 10.592 34.3278 10.04 33.2238C9.396 32.0278 9.12 30.0038 7.464 28.8998C7.188 28.7158 7.372 28.4398 7.924 28.4398C8.476 28.5318 9.672 29.2678 10.408 30.2798C11.236 31.2918 12.064 32.1198 13.536 32.1198C15.824 32.1198 17.0504 32.0048 17.7882 31.6092C18.6475 30.3314 19.8371 29.3598 21.08 29.3598V29.3368C15.8654 29.1694 12.5341 27.4361 10.983 24.7598C7.6112 24.7985 4.67548 25.1324 3.00016 25.4103C2.9468 25.1094 2.9008 24.8068 2.86124 24.5022C4.51448 24.2299 7.3168 23.907 10.5386 23.8454C10.4356 23.5914 10.3464 23.3311 10.2709 23.0643C7.0408 22.9005 4.2532 23.0284 2.73888 23.1535C2.72048 22.8481 2.69564 22.5436 2.69196 22.2344C4.20904 22.1102 6.9212 21.986 10.0685 22.1323C9.99584 21.6723 9.94892 21.2022 9.94892 20.7128C9.94892 19.1488 10.5009 17.4928 11.5129 16.1128C11.0529 14.5488 10.4089 11.2368 11.6969 10.0408C14.1809 10.0408 15.9289 11.2368 16.7569 11.9728C18.32 11.3278 20.068 10.9598 22 10.9598C23.932 10.9598 25.68 11.3278 27.152 11.9718C27.98 11.2358 29.728 10.0398 32.212 10.0398C33.592 11.3278 32.856 14.6398 32.396 16.1118C33.408 17.4918 33.96 19.0558 33.868 20.7118C33.868 21.1571 33.8266 21.5868 33.7668 22.0081C36.9859 21.8499 39.7716 21.9768 41.3145 22.102C41.3126 22.412 41.2841 22.7147 41.2676 23.021C39.7302 22.8941 36.8746 22.7634 33.5773 22.9392C33.4954 23.2483 33.396 23.5491 33.2783 23.8408C36.5406 23.8831 39.4101 24.1986 41.1424 24.4746C41.1029 24.7801 41.0569 25.0828 41.0035 25.3827C39.2445 25.1012 36.2462 24.7718 32.8348 24.7552C31.303 27.403 28.0324 29.1298 22.92 29.3313V29.3598C25.312 29.3598 27.52 32.9478 27.52 35.4318V40.3998C27.52 41.157 27.9782 41.8074 28.6323 42.089C37.0604 39.2995 43.16 31.3507 43.16 21.9998C43.16 10.3324 33.6684 0.839844 22 0.839844C10.3316 0.839844 0.839996 10.3324 0.839996 21.9998C0.839996 31.3507 6.9396 39.2995 15.3677 42.089Z" fill="white"/>
</svg>
