<svg width="38" height="38" viewBox="0 0 38 38" fill="none" xmlns="http://www.w3.org/2000/svg">
<path d="M33.08 0.52002H4.91999C2.49119 0.52002 0.519989 2.49122 0.519989 4.92002V33.08C0.519989 35.5088 2.49119 37.48 4.91999 37.48H33.08C35.5088 37.48 37.48 35.5088 37.48 33.08V4.92002C37.48 2.49122 35.5088 0.52002 33.08 0.52002ZM11.96 14.6V31.32H6.67999V14.6H11.96ZM6.67999 9.73362C6.67999 8.50162 7.73599 7.56002 9.31999 7.56002C10.904 7.56002 11.8984 8.50162 11.96 9.73362C11.96 10.9656 10.9744 11.96 9.31999 11.96C7.73599 11.96 6.67999 10.9656 6.67999 9.73362ZM31.32 31.32H26.04C26.04 31.32 26.04 23.1712 26.04 22.52C26.04 20.76 25.16 19 22.96 18.9648H22.8896C20.76 18.9648 19.88 20.7776 19.88 22.52C19.88 23.3208 19.88 31.32 19.88 31.32H14.6V14.6H19.88V16.8528C19.88 16.8528 21.5784 14.6 24.9928 14.6C28.4864 14.6 31.32 17.0024 31.32 21.8688V31.32Z" fill="white"/>
</svg>
