<svg width="160" height="47" viewBox="0 0 160 47" fill="none" xmlns="http://www.w3.org/2000/svg">
<path d="M19.1 17.75C18.9 18.0667 18.6833 18.2917 18.45 18.425C18.2333 18.5583 17.95 18.625 17.6 18.625C17.2333 18.625 16.8667 18.55 16.5 18.4C16.1333 18.2333 15.7333 18.0583 15.3 17.875C14.8833 17.6917 14.4083 17.525 13.875 17.375C13.3417 17.2083 12.7333 17.125 12.05 17.125C11.0667 17.125 10.3083 17.3167 9.775 17.7C9.25833 18.0667 9 18.5833 9 19.25C9 19.7333 9.16667 20.1333 9.5 20.45C9.85 20.7667 10.3083 21.05 10.875 21.3C11.4417 21.5333 12.0833 21.7583 12.8 21.975C13.5167 22.1917 14.25 22.4333 15 22.7C15.75 22.9667 16.4833 23.2833 17.2 23.65C17.9167 24 18.5583 24.4417 19.125 24.975C19.6917 25.4917 20.1417 26.125 20.475 26.875C20.825 27.625 21 28.525 21 29.575C21 30.8583 20.7667 32.0417 20.3 33.125C19.8333 34.2083 19.1333 35.1417 18.2 35.925C17.2833 36.7083 16.1417 37.3167 14.775 37.75C13.425 38.1833 11.8667 38.4 10.1 38.4C9.21667 38.4 8.33333 38.3167 7.45 38.15C6.56667 37.9833 5.70833 37.7583 4.875 37.475C4.05833 37.1917 3.3 36.8583 2.6 36.475C1.9 36.075 1.3 35.65 0.8 35.2L2.6 32.35C2.8 32.0167 3.05 31.7583 3.35 31.575C3.66667 31.375 4.06667 31.275 4.55 31.275C5 31.275 5.4 31.375 5.75 31.575C6.11667 31.775 6.50833 31.9917 6.925 32.225C7.34167 32.4583 7.825 32.675 8.375 32.875C8.94167 33.075 9.65 33.175 10.5 33.175C11.1 33.175 11.6083 33.1167 12.025 33C12.4417 32.8667 12.775 32.6917 13.025 32.475C13.275 32.2583 13.4583 32.0167 13.575 31.75C13.6917 31.4833 13.75 31.2083 13.75 30.925C13.75 30.4083 13.575 29.9833 13.225 29.65C12.875 29.3167 12.4167 29.0333 11.85 28.8C11.2833 28.55 10.6333 28.325 9.9 28.125C9.18333 27.9083 8.45 27.6667 7.7 27.4C6.95 27.1333 6.20833 26.8167 5.475 26.45C4.75833 26.0667 4.11667 25.5917 3.55 25.025C2.98333 24.4417 2.525 23.7333 2.175 22.9C1.825 22.0667 1.65 21.0583 1.65 19.875C1.65 18.775 1.85833 17.7333 2.275 16.75C2.70833 15.75 3.35 14.875 4.2 14.125C5.05 13.375 6.11667 12.7833 7.4 12.35C8.68333 11.9 10.1833 11.675 11.9 11.675C12.8333 11.675 13.7333 11.7583 14.6 11.925C15.4833 12.0917 16.3083 12.325 17.075 12.625C17.8417 12.925 18.5417 13.2833 19.175 13.7C19.8083 14.1 20.3667 14.5417 20.85 15.025L19.1 17.75ZM38.2656 27.45C36.7156 27.5167 35.4406 27.65 34.4406 27.85C33.4406 28.05 32.649 28.3 32.0656 28.6C31.4823 28.9 31.074 29.2417 30.8406 29.625C30.624 30.0083 30.5156 30.425 30.5156 30.875C30.5156 31.7583 30.7573 32.3833 31.2406 32.75C31.724 33.1 32.4323 33.275 33.3656 33.275C34.3656 33.275 35.2406 33.1 35.9906 32.75C36.7406 32.4 37.499 31.8333 38.2656 31.05V27.45ZM24.3156 15.675C25.8823 14.2917 27.6156 13.2667 29.5156 12.6C31.4323 11.9167 33.4823 11.575 35.6656 11.575C37.2323 11.575 38.6406 11.8333 39.8906 12.35C41.1573 12.85 42.224 13.5583 43.0906 14.475C43.974 15.375 44.649 16.45 45.1156 17.7C45.5823 18.95 45.8156 20.3167 45.8156 21.8V38H42.2656C41.5323 38 40.974 37.9 40.5906 37.7C40.224 37.5 39.9156 37.0833 39.6656 36.45L39.1156 35.025C38.4656 35.575 37.8406 36.0583 37.2406 36.475C36.6406 36.8917 36.0156 37.25 35.3656 37.55C34.7323 37.8333 34.049 38.0417 33.3156 38.175C32.599 38.325 31.799 38.4 30.9156 38.4C29.7323 38.4 28.6573 38.25 27.6906 37.95C26.724 37.6333 25.899 37.175 25.2156 36.575C24.549 35.975 24.0323 35.2333 23.6656 34.35C23.299 33.45 23.1156 32.4167 23.1156 31.25C23.1156 30.3167 23.349 29.375 23.8156 28.425C24.2823 27.4583 25.0906 26.5833 26.2406 25.8C27.3906 25 28.9406 24.3333 30.8906 23.8C32.8406 23.2667 35.299 22.9667 38.2656 22.9V21.8C38.2656 20.2833 37.949 19.1917 37.3156 18.525C36.699 17.8417 35.8156 17.5 34.6656 17.5C33.749 17.5 32.999 17.6 32.4156 17.8C31.8323 18 31.3073 18.225 30.8406 18.475C30.3906 18.725 29.949 18.95 29.5156 19.15C29.0823 19.35 28.5656 19.45 27.9656 19.45C27.4323 19.45 26.9823 19.3167 26.6156 19.05C26.249 18.7833 25.949 18.4667 25.7156 18.1L24.3156 15.675ZM57.9195 14.875C58.4195 14.4083 58.9362 13.975 59.4695 13.575C60.0029 13.175 60.5695 12.8417 61.1695 12.575C61.7862 12.2917 62.4445 12.075 63.1445 11.925C63.8612 11.7583 64.6362 11.675 65.4695 11.675C66.8862 11.675 68.1362 11.925 69.2195 12.425C70.3195 12.9083 71.2445 13.5917 71.9945 14.475C72.7445 15.3417 73.3112 16.3833 73.6945 17.6C74.0779 18.8 74.2695 20.1083 74.2695 21.525V38H66.5195V21.525C66.5195 20.2583 66.2279 19.275 65.6445 18.575C65.0612 17.8583 64.2029 17.5 63.0695 17.5C62.2195 17.5 61.4195 17.6833 60.6695 18.05C59.9362 18.4 59.2195 18.8833 58.5195 19.5V38H50.7695V12.075H55.5695C56.5362 12.075 57.1695 12.5083 57.4695 13.375L57.9195 14.875ZM103.129 12.075L89.2789 44.725C89.0456 45.2417 88.7622 45.6167 88.4289 45.85C88.0956 46.1 87.5622 46.225 86.8289 46.225H81.0289L86.0289 35.725L75.6789 12.075H82.5289C83.1289 12.075 83.5872 12.2083 83.9039 12.475C84.2372 12.7417 84.4789 13.0583 84.6289 13.425L88.8789 24.6C89.2789 25.6167 89.6039 26.6583 89.8539 27.725C90.0372 27.1917 90.2206 26.6583 90.4039 26.125C90.5872 25.5917 90.7789 25.0667 90.9789 24.55L94.8289 13.425C94.9789 13.0417 95.2456 12.725 95.6289 12.475C96.0122 12.2083 96.4289 12.075 96.8789 12.075H103.129ZM116.479 11.675C118.446 11.675 120.238 11.9833 121.854 12.6C123.471 13.2167 124.854 14.1 126.004 15.25C127.171 16.4 128.071 17.8 128.704 19.45C129.354 21.0833 129.679 22.925 129.679 24.975C129.679 27.0417 129.354 28.9083 128.704 30.575C128.071 32.225 127.171 33.6333 126.004 34.8C124.854 35.95 123.471 36.8417 121.854 37.475C120.238 38.0917 118.446 38.4 116.479 38.4C114.496 38.4 112.688 38.0917 111.054 37.475C109.438 36.8417 108.038 35.95 106.854 34.8C105.688 33.6333 104.779 32.225 104.129 30.575C103.496 28.9083 103.179 27.0417 103.179 24.975C103.179 22.925 103.496 21.0833 104.129 19.45C104.779 17.8 105.688 16.4 106.854 15.25C108.038 14.1 109.438 13.2167 111.054 12.6C112.688 11.9833 114.496 11.675 116.479 11.675ZM116.479 32.65C118.263 32.65 119.571 32.025 120.404 30.775C121.254 29.5083 121.679 27.5917 121.679 25.025C121.679 22.4583 121.254 20.55 120.404 19.3C119.571 18.05 118.263 17.425 116.479 17.425C114.646 17.425 113.304 18.05 112.454 19.3C111.604 20.55 111.179 22.4583 111.179 25.025C111.179 27.5917 111.604 29.5083 112.454 30.775C113.304 32.025 114.646 32.65 116.479 32.65ZM141.332 0.574998V21.55H142.482C142.965 21.55 143.332 21.4833 143.582 21.35C143.832 21.2 144.082 20.9583 144.332 20.625L149.232 13.325C149.532 12.9083 149.874 12.6 150.257 12.4C150.64 12.1833 151.132 12.075 151.732 12.075H158.832L152.132 21.3C151.499 22.1333 150.749 22.8167 149.882 23.35C150.265 23.6333 150.615 23.9667 150.932 24.35C151.249 24.7167 151.549 25.1333 151.832 25.6L159.132 38H152.132C151.549 38 151.049 37.9083 150.632 37.725C150.215 37.525 149.865 37.1833 149.582 36.7L144.682 27.525C144.449 27.1083 144.207 26.8417 143.957 26.725C143.707 26.5917 143.332 26.525 142.832 26.525H141.332V38H133.582V0.574998H141.332Z" fill="url(#paint0_linear_65_15)"/>
<defs>
<linearGradient id="paint0_linear_65_15" x1="79.5" y1="-11" x2="79.5" y2="49" gradientUnits="userSpaceOnUse">
<stop stop-color="#5707FF"/>
<stop offset="1" stop-color="#FF005C"/>
</linearGradient>
</defs>
</svg>
