<svg width="44" height="44" viewBox="0 0 44 44" fill="none" xmlns="http://www.w3.org/2000/svg">
<path d="M22 0.839844C33.6868 0.839844 43.16 10.3131 43.16 21.9998C43.16 33.6866 33.6868 43.1598 22 43.1598C10.3132 43.1598 0.839996 33.6866 0.839996 21.9998C0.839996 10.3131 10.3132 0.839844 22 0.839844ZM29.2993 30.6248C29.6884 29.4307 31.5119 17.5296 31.7373 15.1845C31.8054 14.4742 31.5809 14.0023 31.1411 13.7916C30.6094 13.5358 29.8218 13.6637 28.9083 13.9931C27.6552 14.4448 11.6362 21.2464 10.7107 21.6401C9.833 22.0127 9.00316 22.4194 9.00316 23.0082C9.00316 23.4222 9.2488 23.6549 9.92592 23.8969C10.6306 24.148 12.4053 24.6862 13.4532 24.9751C14.4624 25.2539 15.6115 25.0119 16.2555 24.6117C16.9382 24.1876 24.8161 18.916 25.3819 18.4542C25.9468 17.9923 26.3976 18.5839 25.9358 19.0466C25.4739 19.5085 20.0662 24.7571 19.3532 25.4839C18.4874 26.3662 19.102 27.2806 19.6825 27.6468C20.3458 28.0645 25.116 31.2642 25.8346 31.7776C26.5531 32.291 27.2817 32.5237 27.9487 32.5237C28.6157 32.5237 28.9672 31.6451 29.2993 30.6248Z" fill="#5707FF"/>
</svg>
